Coordinates
version=1
nRows=14
nColumns=36
inDegrees=yes

Units are S.I. units (second, meters, Newtons, ...)
If the header above contains a line with 'inDegrees', this indicates whether rotational values are in degrees (yes) or radians (no).

endheader
time	pelvis_tilt	pelvis_list	pelvis_rotation	pelvis_tx	pelvis_ty	pelvis_tz	hip_flexion_r	hip_adduction_r	hip_rotation_r	knee_angle_r	knee_angle_r_beta	ankle_angle_r	subtalar_angle_r	mtp_angle_r	hip_flexion_l	hip_adduction_l	hip_rotation_l	knee_angle_l	knee_angle_l_beta	ankle_angle_l	subtalar_angle_l	mtp_angle_l	lumbar_extension	lumbar_bending	lumbar_rotation	arm_flex_r	arm_add_r	arm_rot_r	elbow_flex_r	pro_sup_r	arm_flex_l	arm_add_l	arm_rot_l	elbow_flex_l	pro_sup_l
      0.69000000	      1.29178957	      1.82664128	     -7.07380328	      0.71862006	      0.93247683	     -0.23884626	    -16.07654134	     -3.35209491	     -2.84900039	     22.64937926	      0.39530624	      0.27955655	    -21.00008201	     -7.06358558	     20.79941850	     -0.02621909	    -11.13616312	     12.56690893	      0.21933394	    -11.11440502	    -21.02759693	     -7.06358558	     -5.40757562	     -2.75800293	      7.71396874	      4.96253222	     -7.33198423	    -10.26223617	     46.93999420	    112.07200053	    -11.82962878	     -5.88663617	    -20.93814200	     16.96779439	    103.78800806
      0.70000000	      1.22203281	      2.17685303	     -6.55040148	      0.73232379	      0.93426058	     -0.24183900	    -14.56490001	     -3.91356126	     -3.01447531	     26.31630499	      0.45930617	     -3.85097213	    -23.68189148	     -7.08884893	     20.41159123	      0.63598063	    -11.05834209	     13.34852956	      0.23297579	    -10.01977758	    -20.41981086	     -7.08884893	     -5.13900994	     -3.17665214	      6.99819046	      4.12226418	     -6.90300968	    -10.35693654	     46.00986514	    112.09572281	    -11.02490865	     -6.06147489	    -20.20222256	     17.24616769	    103.78963729
      0.71000000	      1.22773360	      2.55009812	     -5.98300394	      0.74575017	      0.93618495	     -0.24499180	    -12.83433330	     -4.59927078	     -3.43590895	     30.41007942	      0.53075601	     -7.32034538	    -25.09433951	     -7.10596588	     19.83074381	      1.38031361	    -10.93901429	     13.87749931	      0.24220805	     -9.01799555	    -20.08238860	     -7.10596588	     -5.03206528	     -3.61619780	      6.18137702	      3.33603975	     -6.46505881	    -10.46182811	     45.12031431	    112.09369600	    -10.15823193	     -6.20774909	    -19.69915497	     17.71473663	    103.84744883
      0.72000000	      1.39681678	      3.02227584	     -5.41085642	      0.75905963	      0.93828961	     -0.24830360	    -11.07445795	     -5.54258567	     -4.14313597	     34.70594084	      0.60573294	    -10.17907086	    -25.40850799	     -7.11122786	     18.90331744	      2.31690632	    -10.67631580	     14.04830497	      0.24518918	     -8.16836713	    -19.93327028	     -7.11122786	     -5.11205913	     -4.15813161	      5.37153928	      2.49969593	     -6.07761960	    -10.48162440	     44.42107611	    112.07545824	     -9.18358834	     -6.29567433	    -19.42707640	     18.24348778	    103.93002705
      0.73000000	      1.81347258	      3.13737342	     -4.78261856	      0.77177470	      0.94069971	     -0.25156510	     -9.56315142	     -6.00937885	     -4.55299781	     38.82912135	      0.67769601	    -12.55487965	    -25.59822748	     -7.11375419	     17.71664317	      2.88459418	    -10.30112893	     14.26443588	      0.24896137	     -7.56265249	    -19.76145789	     -7.11375419	     -5.68248678	     -4.25894657	      4.47660024	      1.84198230	     -5.80614173	    -10.52356390	     43.77828033	    112.04968759	     -8.02131999	     -6.29292732	    -19.17044389	     18.82467509	    104.02579091
      0.74000000	      1.44907041	      3.55581225	     -4.18580034	      0.78440656	      0.94180491	     -0.25449490	     -6.93280287	     -6.74255371	     -4.97456987	     43.00230256	      0.75053177	    -18.29348423	    -29.07398222	     -7.13100659	     17.39755328	      3.63869878	    -10.17454195	     14.47685275	      0.25266875	     -6.00042477	    -18.77880968	     -7.13100659	     -5.15264514	     -4.75291237	      3.62843290	      1.08431022	     -5.31079290	    -10.57738092	     42.46281868	    112.09615914	     -7.24261961	     -6.55856238	    -18.28699355	     19.71118267	    104.37659095
      0.75000000	      1.62757818	      3.92055576	     -3.61215992	      0.79669051	      0.94352500	     -0.25751891	     -4.94463689	     -7.55709669	     -5.50081284	     46.92184199	      0.81894063	    -20.28743352	    -29.26654736	     -7.13531168	     16.29271595	      4.46649529	     -9.72417790	     14.27892158	      0.24921420	     -5.14349093	    -18.56435889	     -7.13531168	     -5.40910513	     -5.16374552	      2.85236729	      0.31285700	     -4.96902700	    -10.56663550	     41.76966845	    112.08863975	     -6.02217357	     -6.68463462	    -17.94883197	     20.39869021	    104.52462496
      0.76000000	      1.67410504	      4.16144179	     -3.07854581	      0.80866253	      0.94491323	     -0.26034029	     -2.80649847	     -8.18328874	     -5.91251490	     50.53338065	      0.88197387	    -21.85528578	    -30.06242890	     -7.13981942	     15.34315177	      5.10879029	     -9.30869158	     14.09663167	      0.24603264	     -4.31533191	    -18.30122653	     -7.13981942	     -5.52882920	     -5.41706836	      2.11666792	     -0.39881502	     -4.65726226	    -10.61881678	     40.87948657	    112.07316275	     -4.84467569	     -6.81329010	    -17.44639728	     21.25596760	    104.73271203
      0.77000000	      1.67728233	      4.33414373	     -2.60243244	      0.82032961	      0.94621487	     -0.26285502	     -0.63676980	     -8.67178682	     -6.22712514	     53.72907950	      0.93774934	    -22.64520805	    -31.04128325	     -7.14466281	     14.41378501	      5.62472438	     -8.93209759	     13.87228810	      0.24211710	     -3.47790442	    -18.01973380	     -7.14466281	     -5.62934598	     -5.62045095	      1.45034069	     -1.04825161	     -4.32272630	    -10.66893087	     39.88871113	    112.06494550	     -3.66463043	     -6.97250960	    -16.81301332	     22.16625459	    104.98331228
      0.78000000	      1.63096020	      4.37443997	     -2.21296759	      0.83171455	      0.94743304	     -0.26511425	      1.56176901	     -8.94438524	     -6.38605321	     56.51329632	      0.98634309	    -22.31248492	    -31.78984061	     -7.15781590	     13.58650988	      5.91919980	     -8.74547733	     13.74641981	      0.23992029	     -2.50795649	    -17.43941886	     -7.15781590	     -5.69330433	     -5.66080524	      0.78745624	     -1.53486836	     -4.01770428	    -10.72312152	     38.65480733	    112.13672921	     -2.52629503	     -7.22346972	    -15.48453164	     23.05607250	    105.46822681
      0.79000000	      1.65540740	      4.44698362	     -1.94977688	      0.84295534	      0.94880174	     -0.26718226	      3.64340256	     -9.20851027	     -6.38425204	     58.81821310	      1.02657148	    -21.07139721	    -32.42659829	     -7.16192894	     12.54801810	      6.26908599	     -8.32012762	     13.32212853	      0.23251501	     -1.75848740	    -17.26062567	     -7.16192894	     -5.87715208	     -5.75412990	      0.38969178	     -2.20255099	     -3.78518017	    -10.75917065	     37.69537807	    112.12801159	     -1.16185169	     -7.28328075	    -14.94988764	     23.90491223	    105.66643861
      0.80000000	      1.56322604	      4.37948243	     -1.79126052	      0.85404095	      0.95001207	     -0.26902433	      5.85609943	     -9.28204250	     -6.30928852	     60.75303672	      1.06034052	    -18.74393734	    -32.45154413	     -7.16772507	     11.68470816	      6.39686624	     -8.12155402	     13.00801067	      0.22703262	     -1.05443636	    -16.97984242	     -7.16772507	     -5.88019577	     -5.65809855	     -0.00942726	     -2.66816511	     -3.53905344	    -10.89005842	     36.51690225	    112.12368030	      0.03640488	     -7.43317041	    -14.07468284	     24.90514871	    105.95155619
      0.81000000	      1.48635489	      4.22272125	     -1.72787405	      0.86493571	      0.95138105	     -0.27055882	      7.99968409	     -9.11637733	     -6.02542512	     62.14528198	      1.08463979	    -16.07150770	    -32.22752129	     -7.17444008	     10.82173063	      6.37743273	     -7.98514098	     12.71620671	      0.22193968	     -0.34553171	    -16.63950927	     -7.17444008	     -5.96186063	     -5.48422464	     -0.34569468	     -3.11354217	     -3.31776294	    -11.01117495	     35.31590649	    112.13443615	      1.22306329	     -7.58625564	    -13.09126856	     25.91544736	    106.24993031
      0.82000000	      1.41612739	      3.97404575	     -1.75998469	      0.87572196	      0.95283956	     -0.27191368	     10.06922059	     -8.76391594	     -5.60939951	     63.04236007	      1.10029675	    -13.33894644	    -31.73493861	     -7.18404935	      9.96298393	      6.22795573	     -7.95823198	     12.44650379	      0.21723247	      0.38260418	    -16.16466489	     -7.18404935	     -6.04853118	     -5.18502918	     -0.65609858	     -3.48447792	     -3.13364797	    -11.15173569	     34.13666591	    112.16741561	      2.36162479	     -7.74667578	    -11.93553893	     26.93047742	    106.56885021
